<?xml version="1.0" standalone="no"?>
<!DOCTYPE svg PUBLIC "-//W3C//DTD SVG 20010904//EN"
 "http://www.w3.org/TR/2001/REC-SVG-20010904/DTD/svg10.dtd">
<svg version="1.0" xmlns="http://www.w3.org/2000/svg"
 width="1000.000000pt" height="1000.000000pt" viewBox="0 0 1000.000000 1000.000000"
 preserveAspectRatio="xMidYMid meet">
<metadata>
Created by potrace 1.11, written by Peter Selinger 2001-2013
</metadata>
<g transform="translate(0.000000,1000.000000) scale(0.100000,-0.100000)"
fill="#000000" stroke="none">
<path d="M1569 9306 c-2 -2 -34 -7 -70 -10 -149 -15 -365 -85 -519 -168 -252
-137 -461 -342 -607 -597 -48 -85 -115 -243 -134 -321 -16 -61 -38 -164 -46
-216 -9 -58 -11 -5872 -1 -5959 30 -281 155 -575 338 -794 223 -268 486 -429
847 -519 l108 -27 3480 -2 c1941 -1 3500 2 3525 7 25 4 61 11 81 14 19 3 62
13 95 22 32 8 75 20 94 24 91 23 274 113 395 194 198 133 391 353 497 568 48
99 101 231 113 285 24 110 36 170 44 233 11 92 12 5782 1 5890 -12 112 -48
283 -69 335 -5 11 -17 43 -26 70 -65 184 -210 403 -368 552 -217 205 -479 341
-772 400 -85 17 -266 18 -3546 20 -1900 2 -3457 1 -3460 -1z m6861 -510 c19
-3 60 -11 90 -17 71 -14 201 -64 265 -102 148 -87 226 -156 324 -288 116 -156
181 -329 197 -528 l5 -71 -4312 0 -4312 0 6 88 c16 223 123 456 285 619 165
166 395 280 606 299 39 3 72 7 73 8 6 5 6745 -2 6773 -8z m848 -1515 l32 -1 0
-2587 c-1 -2462 -2 -2592 -19 -2673 -46 -216 -135 -382 -284 -528 -133 -132
-329 -241 -481 -268 -16 -3 -32 -7 -36 -9 -4 -2 -35 -7 -71 -11 -83 -10 -6742
-10 -6834 -1 -266 28 -519 173 -690 398 -59 77 -124 200 -154 289 -53 162 -50
13 -51 2802 l0 2587 32 3 c27 2 8450 1 8556 -1z"/>
<path d="M2387 6193 l-177 -178 887 -887 888 -888 -888 -888 -887 -887 180
-180 181 -180 1066 1067 1065 1068 -1063 1065 c-585 586 -1066 1065 -1069
1065 -3 0 -85 -80 -183 -177z"/>
<path d="M5259 2716 c-1 -1 -3 -115 -4 -253 l-1 -253 1268 0 1268 0 0 253 0
254 -1265 0 c-696 0 -1266 0 -1266 -1z"/>
</g>
</svg>
